<svg width="28" height="28" viewBox="0 0 28 28" fill="none" xmlns="http://www.w3.org/2000/svg">
<path fill-rule="evenodd" clip-rule="evenodd" d="M2.26896 13.6475C2.26896 7.66384 7.04511 2.27173 13.6364 2.27173C20.0803 2.27173 24.9585 7.56146 24.9585 13.6134C24.9585 20.6322 19.2408 24.9891 13.6137 24.9891C11.7532 24.9891 9.68845 24.4886 8.03211 23.5103C7.45352 23.1576 6.9657 22.896 6.34174 23.1007L4.05009 23.7833C3.4715 23.9653 2.94964 23.5103 3.11982 22.896L3.87992 20.3478C4.00471 19.9952 3.98202 19.6198 3.8005 19.324C2.82485 17.5266 2.26896 15.5586 2.26896 13.6475ZM12.1389 13.6475C12.1389 14.4552 12.7856 15.1036 13.5911 15.115C14.3965 15.115 15.0432 14.4552 15.0432 13.6589C15.0432 12.8512 14.3965 12.2028 13.5911 12.2028C12.7969 12.1914 12.1389 12.8512 12.1389 13.6475ZM17.3689 13.6589C17.3689 14.4552 18.0155 15.115 18.821 15.115C19.6265 15.115 20.2731 14.4552 20.2731 13.6589C20.2731 12.8512 19.6265 12.2028 18.821 12.2028C18.0155 12.2028 17.3689 12.8512 17.3689 13.6589ZM8.36111 15.115C7.56697 15.115 6.90898 14.4552 6.90898 13.6589C6.90898 12.8512 7.55563 12.2028 8.36111 12.2028C9.16659 12.2028 9.81324 12.8512 9.81324 13.6589C9.81324 14.4552 9.16659 15.1036 8.36111 15.115Z" fill="#004581"/>
</svg>
