<?xml version="1.0" encoding="UTF-8"?>
<svg id="Layer_1" data-name="Layer 1" xmlns="http://www.w3.org/2000/svg" viewBox="0 0 202.98 41.85">
  <path d="m170.81,21.19c-.09,2.49-.09,5.11-.84,7.66-1.8,6.2-6.34,9.86-12.46,9.99-5.95.12-11.01-3.3-12.79-9.28-1.74-5.83-1.85-11.85.14-17.68,1.95-5.74,6.79-9.02,12.53-8.86,6.07.17,10.62,3.67,12.45,9.53.87,2.78.93,5.64.97,8.64Zm-2.94-.68c.06-2.07-.1-4.49-.72-6.87-1.22-4.66-4.49-7.55-9.02-7.98-4.29-.41-8.44,1.74-9.99,5.76-2.42,6.27-2.48,12.74,0,18.99,1.6,4.02,5.01,5.92,9.38,5.85,4.22-.07,7.46-2.38,9.05-6.36,1.16-2.9,1.3-5.95,1.29-9.39Z"/>
  <path d="m86.19,20.88c0-5.25,0-10.5,0-15.75,0-.7-.24-1.62.98-1.58,4.86.16,9.77-.54,14.58.43,5.51,1.11,8.45,5.27,8.02,10.91-.41,5.34-3.98,8.78-9.61,9.08-3.05.16-6.12.23-9.18.16-1.53-.04-1.88.5-1.84,1.92.1,3.43.02,6.87.04,10.31,0,1.09.16,2.03-1.55,2.01-1.78-.02-1.45-1.09-1.46-2.11,0-5.12,0-10.25,0-15.37Zm3-7.11c0,2.18.05,4.37-.02,6.55-.04,1.08.34,1.38,1.38,1.36,2.93-.07,5.86.05,8.79-.08,4.34-.2,7.19-2.82,7.45-6.65.33-4.89-1.83-7.92-6.44-8.73-3.39-.59-6.84-.14-10.27-.25-.98-.03-.89.63-.89,1.26,0,2.18,0,4.36,0,6.55Z"/>
  <path d="m178.22,20.9c0-5.18.03-10.36-.02-15.53-.01-1.31.25-1.93,1.74-1.84,4.66.26,9.37-.49,13.99.49,5.53,1.18,8.24,5.27,7.77,11.43-.36,4.73-4.07,8.21-9.3,8.52-3.17.19-6.36.22-9.54.18-1.42-.02-1.81.44-1.77,1.82.09,3.62,0,7.24.05,10.85.02,1.1-.26,1.54-1.45,1.53-1.18,0-1.49-.43-1.48-1.54.04-5.3.02-10.61.02-15.91Zm2.9-7.15c0,2.25.01,4.49,0,6.74,0,.71.11,1.19,1,1.18,3.24-.05,6.51.14,9.73-.12,4.39-.36,6.82-3.06,7.02-7.31.2-4.21-2.2-7.26-6.51-8.01-3.4-.59-6.85-.14-10.28-.25-.92-.03-.96.54-.96,1.22.01,2.18,0,4.37,0,6.55Z"/>
  <path d="m52.04,38.07c1.46-3.86,2.92-7.7,4.37-11.54,2.69-7.11,5.38-14.23,8.05-21.35.37-.98.71-1.7,2.05-1.69,1.32,0,1.68.68,2.05,1.68,3.93,10.44,7.89,20.87,11.81,31.32.2.53,1.02,1.42.12,1.69-.9.27-2.27.74-2.83-.84-.88-2.46-1.85-4.9-2.69-7.38-.35-1.02-.81-1.49-1.98-1.47-4.31.07-8.62.07-12.93,0-1.16-.02-1.65.43-1.99,1.46-.68,2.07-1.48,4.1-2.23,6.15-.91,2.48-.93,2.5-3.79,1.96Zm14.46-30.98c-2.42,6.59-4.67,12.7-6.95,18.89h13.9c-2.3-6.24-4.53-12.31-6.96-18.89Z"/>
  <path d="m1.23,3.74c1.8-.55,2.84-.04,3.76,1.67,5.19,9.67,10.56,19.25,15.79,28.89.66,1.21,1.38,1.63,2.75,1.62,7.12-.07,14.24-.03,21.36-.04.88,0,1.74-.16,1.7,1.26-.03,1.28-.8,1.17-1.62,1.17-8.12,0-16.24,0-24.35.01-.82,0-1.38-.19-1.8-.98C13.04,26.36,7.22,15.4,1.43,4.43c-.11-.2-.13-.45-.2-.68Z"/>
  <path d="m128.16,22.16c0,4.87-.04,9.74.03,14.61.02,1.28-.45,1.56-1.63,1.58-1.23.02-1.42-.49-1.42-1.56.03-9.61-.03-19.23.07-28.84.02-1.72-.5-2.09-2.09-2.02-2.87.13-5.74.02-8.61.04-.78,0-1.31-.09-1.3-1.09,0-.93.25-1.35,1.26-1.35,8.11.03,16.23.02,24.34,0,.96,0,1.3.33,1.31,1.31.01,1.15-.66,1.13-1.46,1.13-2.87-.01-5.75.09-8.61-.04-1.61-.08-1.96.49-1.93,2,.1,4.74.03,9.49.03,14.23Z"/>
</svg>