<svg width="23" height="23" viewBox="0 0 23 23" fill="none" xmlns="http://www.w3.org/2000/svg">
<path d="M18.3282 14.2658C18.0343 14.5509 17.8993 14.9632 17.9663 15.3676L18.9748 20.9561C19.0599 21.4297 18.8602 21.9091 18.4643 22.1828C18.0763 22.4668 17.5601 22.5009 17.137 22.2737L12.1123 19.6498C11.9376 19.5567 11.7436 19.5067 11.5451 19.501H11.2377C11.131 19.5169 11.0267 19.551 10.9314 19.6033L5.90562 22.2396C5.65716 22.3646 5.37581 22.4089 5.10014 22.3646C4.42852 22.2374 3.98041 21.5967 4.09045 20.9209L5.10014 15.3324C5.16707 14.9246 5.03207 14.51 4.73824 14.2204L0.641634 10.2448C0.299022 9.91203 0.179902 9.41225 0.33646 8.96131C0.48848 8.51151 0.876471 8.18324 1.34501 8.10941L6.98337 7.29045C7.4122 7.24615 7.78885 6.9849 7.98171 6.5987L10.4662 1.49865C10.5252 1.38506 10.6012 1.28056 10.6931 1.19196L10.7952 1.11245C10.8485 1.05339 10.9098 1.00454 10.9779 0.964789L11.1015 0.919355L11.2944 0.839844H11.772C12.1986 0.884143 12.5741 1.13971 12.7703 1.52137L15.2878 6.5987C15.4693 6.97013 15.8221 7.22797 16.2294 7.29045L21.8677 8.10941C22.3442 8.17756 22.7424 8.50696 22.9001 8.96131C23.0487 9.41679 22.9205 9.91658 22.5711 10.2448L18.3282 14.2658Z" fill="#004581"/>
</svg>
